<svg id="logosandtypes_com" data-name="logosandtypes com" xmlns="http://www.w3.org/2000/svg" viewBox="0 0 150 150"><defs><style>.cls-1{fill:none;}.cls-2{fill:#ff4370;}</style></defs><path class="cls-1" d="M0,.2H150v150H0Z" transform="translate(0 -0.2)"/><path class="cls-2" d="M106.08,73.25H22.54V22.4A3.48,3.48,0,0,1,26,18.93h80.07a27.18,27.18,0,0,1,27.18,27.18h0C133.26,64.84,121.09,73.25,106.08,73.25Z" transform="translate(0 -0.2)"/><path class="cls-2" d="M106.08,77.84H22.54v50.88A3.48,3.48,0,0,0,26,132.2h80.07A27.18,27.18,0,0,0,133.26,105h0C133.26,86.26,121.09,77.84,106.08,77.84Z" transform="translate(0 -0.2)"/></svg>